PathFileType	4	(X/Y/Z)	Run_200 02
DataRate	CameraRate	NumFrames	NumMarkers	Units	OrigDataRate	OrigDataStartFrame	OrigNumFrames
100	100	4	42	mm	100	42	128
Frame#	Time	RASI			LPSI			RPSI			RTH1			RTH2			RTH3			LTH1			LTH2			LTH3			RTB1			RTB2			RTB3			LTB1			LTB2			LTB3			RCAL			RTOE			RMT5			LCAL			LTOE			LMT5			LACR			RACR			C7			RUA1			RUA2			RUA3			RLEL			RMEL			LUA2			LUA3			LLEL			LMEL			RFAsuperior			RFAradius			RFAulna			LFAsuperior			LFAradius			LFAulna			LUA1			CLAV			LASI			
		X1	Y1	Z1	X2	Y2	Z2	X3	Y3	Z3	X4	Y4	Z4	X5	Y5	Z5	X6	Y6	Z6	X7	Y7	Z7	X8	Y8	Z8	X9	Y9	Z9	X10	Y10	Z10	X11	Y11	Z11	X12	Y12	Z12	X13	Y13	Z13	X14	Y14	Z14	X15	Y15	Z15	X16	Y16	Z16	X17	Y17	Z17	X18	Y18	Z18	X19	Y19	Z19	X20	Y20	Z20	X21	Y21	Z21	X22	Y22	Z22	X23	Y23	Z23	X24	Y24	Z24	X25	Y25	Z25	X26	Y26	Z26	X27	Y27	Z27	X28	Y28	Z28	X29	Y29	Z29	X30	Y30	Z30	X31	Y31	Z31	X32	Y32	Z32	X33	Y33	Z33	X34	Y34	Z34	X35	Y35	Z35	X36	Y36	Z36	X37	Y37	Z37	X38	Y38	Z38	X39	Y39	Z39	X40	Y40	Z40	X41	Y41	Z41	X42	Y42	Z42	

30	1.12	1221.292392	1032.389902	-196.015171	1048.171863	1092.372428	-366.00832	1048.83142	1089.122571	-273.117421	1151.804349	854.298469	-147.079785	1160.259891	749.558479	-164.843964	1055.43068	634.039283	-176.779745	1164.727766	896.689733	-510.545583	1278.53084	802.483063	-488.511959	1252.072866	668.338013	-473.605972	996.97624	370.56026	-253.629894	906.950997	300.12972	-215.583698	894.860593	226.31164	-280.062256	1290.036982	392.482701	-403.061154	1236.416851	344.389402	-442.427384	1237.510633	264.278842	-387.256762	743.956316	194.235697	-284.999904	941.2247	68.766847	-308.764459	913.590874	57.204438	-232.312977	1090.633562	160.410731	-359.471182	1326.955421	104.563969	-357.578056	1291.281719	88.10110299999999	-441.434328	1158.202018	1590.362602	-454.14079	1255.586229	1554.17207	-139.211041	1142.97621	1589.349792	-280.207255	1233.575541	1419.310508	-54.572142	1170.158632	1409.942038	-28.607723	1190.309411	1340.68778	-19.753811	1166.381571	1263.827311	3.111186	1091.523756	1265.94562	-59.410588	975.016316	1521.375934	-456.816546	946.8824059999999	1465.64556	-523.313705	890.924041	1416.877146	-533.325843	885.632306	1402.465217	-441.135721	1236.697797	1284.506087	-48.864898	1320.686349	1330.208123	-188.744948	1339.898083	1261.42739	-172.950811	952.5369449999999	1355.134763	-547.46736	1112.232878	1276.991185	-511.995911	1068.90907	1221.326876	-524.2192669999999	1044.260658	1542.005867	-511.453962	1260.724575	1503.30673	-288.246388	1219.604508	1030.782117	-456.842028	
31	1.13	1222.503162	1036.399285	-196.119899	1049.545613	1096.834801	-365.920548	1050.271072	1093.41617	-272.921659	1150.766522	858.123858	-147.542102	1156.518778	753.5153350000001	-166.020403	1049.295621	640.1648300000001	-177.075874	1165.011398	901.007322	-510.419431	1276.909416	804.813914	-488.597699	1246.998618	670.388428	-470.391043	986.525797	377.7568	-253.001141	895.896913	307.936094	-214.298509	883.757473	233.199899	-278.272681	1297.03702	394.130737	-400.315554	1247.761457	341.61154	-439.367228	1254.125029	262.517496	-383.42755	734.170333	205.509386	-283.077917	923.891445	69.53308199999999	-308.261925	895.535119	57.587112	-232.137685	1115.301831	148.070551	-355.805525	1355.221269	109.737821	-351.095348	1321.51078	89.28614399999999	-434.944145	1158.360937	1595.425693	-454.103547	1255.272913	1561.405014	-141.223895	1142.458625	1594.153255	-280.962861	1234.622826	1428.837419	-54.551578	1171.603593	1419.674778	-28.427707	1191.966175	1350.499419	-18.125767	1167.808836	1273.309293	5.218098	1091.848513	1275.549823	-56.22013	975.403187	1527.728846	-455.150694	946.257144	1472.641361	-522.1186290000001	890.033599	1423.633359	-531.510261	885.557423	1409.125886	-439.279273	1237.434093	1292.486302	-48.085659	1319.658489	1336.221569	-189.903659	1337.627045	1267.143087	-174.378404	951.83473	1362.28286	-546.107209	1112.45022	1285.081987	-511.794305	1069.39167	1229.203346	-523.540313	1043.776203	1548.848829	-511.044824	1260.590815	1508.869507	-289.061409	1221.316815	1035.376747	-456.93611	
32	1.14	1223.589872	1040.197206	-195.885582	1050.722424	1100.59605	-365.784739	1051.18278	1097.11668	-272.746732	1150.273813	861.80607	-147.803608	1153.675459	757.210906	-167.473273	1044.726547	645.763636	-177.609783	1165.239832	903.805943	-509.66681	1274.460611	805.311072	-488.487836	1241.29625	671.216233	-468.155682	977.860819	384.413533	-252.417385	886.363297	315.538106	-213.040487	873.7553789999999	240.092545	-276.635953	1302.590896	395.351929	-396.884652	1258.158072	338.836186	-435.921914	1269.187687	261.167835	-379.005401	725.380813	217.165971	-281.107386	906.900582	70.70900899999999	-307.702055	877.716375	58.481407	-232.010972	1138.92035	137.056104	-351.908381	1381.060724	116.174189	-344.133687	1349.724473	91.857343	-427.936375	1158.693136	1599.684725	-454.4764	1254.783968	1567.617682	-143.238533	1142.110953	1598.166842	-281.783681	1235.340213	1437.348955	-54.658602	1172.673224	1428.346472	-28.538118	1193.010038	1359.293584	-16.745782	1168.398759	1281.819345	7.070588	1092.003586	1284.220256	-53.531809	976.088439	1532.889675	-454.017221	946.165849	1478.188393	-521.373757	889.76974	1428.925445	-530.237624	885.893548	1414.298753	-437.936576	1237.489871	1299.316404	-47.345362	1318.640733	1340.374555	-190.98669	1335.028185	1271.113354	-175.274814	951.851763	1368.090468	-545.1309690000001	1113.331444	1291.875743	-511.697454	1070.622241	1235.752571	-523.172736	1043.667844	1554.218142	-510.844692	1260.614563	1513.539508	-289.840393	1222.905205	1039.759675	-456.691377	
33	1.15	1224.506265	1043.57617	-195.471725	1051.768659	1103.551802	-365.673183	1051.622223	1100.212436	-272.662978	1150.348766	865.15774	-147.872273	1152.20059	760.355963	-169.097741	1042.013465	650.490733	-178.148103	1165.367458	905.227691	-508.391572	1271.497029	804.336355	-487.898109	1235.637323	671.046172	-467.23235	971.1037669999999	389.959553	-251.680661	878.426302	322.56864	-211.813613	864.771509	246.619354	-274.935194	1306.566905	396.074569	-393.278678	1266.887543	336.184689	-432.411098	1282.250445	260.139127	-374.48368	717.558397	228.96045	-279.021551	890.328978	72.289632	-307.00449	860.188134	60.123232	-231.824387	1160.748434	127.419965	-347.648815	1403.742233	123.917938	-336.787329	1375.194468	95.57693999999999	-420.423535	1159.18417	1602.985041	-455.063874	1254.22037	1572.655015	-145.197409	1141.973543	1601.346017	-282.646243	1235.741234	1444.538067	-54.915196	1173.226389	1435.793743	-29.032351	1193.395316	1366.891442	-15.634503	1168.118753	1289.197743	8.736506	1091.366863	1291.824641	-51.181024	977.014049	1536.724039	-453.58723	946.558367	1482.180422	-521.094837	890.0542380000001	1432.588609	-529.47865	886.6796450000001	1417.919784	-437.106922	1236.842978	1304.866022	-46.609269	1317.608004	1342.576946	-191.892505	1332.202045	1273.253901	-175.662294	952.557721	1372.441707	-544.539666	1114.876056	1297.298147	-511.742904	1072.573418	1240.926414	-523.090271	1043.981395	1558.093937	-510.957368	1260.765981	1517.206178	-290.516602	1224.322938	1043.723458	-456.26728	
